<?xml version="1.0" encoding="UTF-8"?>
<svg id="svg-map" xmlns="http://www.w3.org/2000/svg" version="1.1" viewBox="0 0 450 460">
  <defs>
    <style>
      .cls-1 {
        fill: #463fb0;
        stroke-width: 0px;
      }

      .cls-2 {
        fill: #fff;
      }

      .cls-2, .cls-3, .cls-4 {
        font-family: Arial-BoldMT, Arial;
        font-size: 12px;
        font-weight: 700;
        isolation: isolate;
      }

      .cls-5 {
        fill: #f9f9ac;
        stroke: #463fb0;
        stroke-linecap: round;
        stroke-linejoin: round;
        stroke-width: 1px;
      }

      .cls-3 {
        fill: #000;
      }

      .cls-4 {
        fill: #216cb4;
      }
    </style>
  </defs>
  <g onclick="filterTableByState(&apos;TO&apos;, &apos;Tocantins&apos;, event)">
    <path class="cls-5" d="M289.6,235.6c16.1.6,45-31.6,44.8-45.3-.1-13.6-17.2-58.4-22.3-66.1-5.1-7.6-37.9,2.5-37.9,2.5,0,0-39.3,106.9,15.4,108.8Z"/>
    <text class="cls-4" transform="translate(287 188.3)"><tspan x="0" y="0">TO</tspan></text>
  </g>
  <g onclick="filterTableByState(&apos;BA&apos;, &apos;Bahia&apos;, event)">
    <path class="cls-5" d="M313.3,197.8c2.1-2.7,3.5-7,6.5-8.8,1.6-1,3.2-4.7,4.3-5.2,2.3-1,12.2-25.1,20.7-22.5,1.1.3,29.9,3.5,32.2,7.5,2.2-.5,17.6-8.8,25.8-5,9.2,4.2,11.2,20.7,11.2,20.8.1.3-.8,5.8-1,5.9-1.1,1-5.3-.8-4.2,2.1,1.3,3.8,5.1,10.6,10,6.6-3.7,6.6-6.8,16-14,17.7-5.8,1.4-4.6,13.4-5.2,18-.5,3.8.2,8.4,1,12.1,1.1,5-.8,8.6-1.8,13.4-.8,4.2-.2,8.3-1,12.3-.3,1.3-4.4,5.7-5.6,7.1-1.6-1.4-64-37.2-73.1-36.3,1.1-3.7,2.4-9.6-.7-12.7-8.6-8.6-.1-19.3-.2-19.4-.5-1.7-5.4-6.1,0-7.2-3.2,1-1.9-4,.9-3-2.3-.8-5-1-5.8-3.8Z"/>
    <text class="cls-4" transform="translate(359.7 210.1)"><tspan x="0" y="0">BA</tspan></text>
  </g>
  <g onclick="filterTableByState(&apos;SE&apos;, &apos;Sergipe&apos;, event)">
    <path class="cls-5" d="M408.6,191.7c.5-1.5,2.5-.7,3.5-.8,2.3-.2.5-2.7,1.1-3.8,2-3.8-2.7-6-2-10.4,4,1.9,9.4,3.4,12.4,6.9,1.3,1.5,5.5,2.7,5.8,4.8-6.8.4-6.9,8.8-11.9,11.6-3.9,2.1-10.4-6.3-8.9-8.3Z"/>
    <text class="cls-4" transform="translate(411.9 198.7)"><tspan x="0" y="0">SE</tspan></text>
  </g>
  <g onclick="filterTableByState(&apos;PE&apos;, &apos;Pernambuco&apos;, event)">
    <path class="cls-5" d="M373,167.2c2.7-.8,6.2-14.1,8.3-15.1,4.1-2,17.3-1.4,17.8,4.9-.4,0,8.2-2.3,7.5-1.5,1.7-.7,10.5-4.7,12.6-4.8.3,0,4.6.9,3.1,2.3-.5.4,4.2,3.7,10.8,3.4,4.7-.2,5.2-3.4,8.6-4.4,5.9-1.7,4.7,3.7,5.6,6.9-1.2,2.7-1.6,5.6-2.7,8.3-1.5,3.8-9.8,9.8-13.4,12.1-7.3,4.8-21.8-4.1-22.8-5.7-.6-1-2.5-5.1-3.2-5.1-.6.4-1,.9-1.3,1.5-.9,0-7.3-3.5-7.5-4.7-4.8-1.2-5.4,6.1-9,6.2.2.1-8.2,6.7-7.5,3.3,3.6-4.6-5.7-6.5-7-7.8Z"/>
    <text class="cls-4" transform="translate(430.4 167.8)"><tspan x="0" y="0">PE</tspan></text>
  </g>
  <g onclick="filterTableByState(&apos;AL&apos;, &apos;Alagoas&apos;, event)">
    <path class="cls-5" d="M414,169c3.8,3.3,9.4,5.5,12.5,5.5,3.2,0,5-3.3,7.4-4.8,1.2-.7,10.3-1.9,9.2,1-1.8,4.8-7.1,8.6-10,12.8-2.8,2-3.4,7.1-6.4,1.9-3.3.4-3.7-4.4-7-4.5-3.7-2.3-8-3.8-11.2-6.3,2.1-1.9,4.2-3.2,5.4-5.6Z"/>
    <text class="cls-4" transform="translate(425.8 183.9)"><tspan x="0" y="0">AL</tspan></text>
  </g>
  <g onclick="filterTableByState(&apos;RN&apos;, &apos;Rio Grande do Norte&apos;, event)">
    <path class="cls-5" d="M404.7,138.8c2.4-4,6.6-6.1,8.5-11.1,2-5.1,3.8-5.8,8.8-4.6,5,1.2,9.3.8,14.6,1.7,7.5,1.2,6.8,11,9.2,16.5-1.9,1.1-14,.5-15.1-1.7-1-2.1-2.9,7.1-5.1,7.3,1.5-5.8-12.7,1.8-5.4-8.7,2.5-3.7-6.3-.8-6.7.7-3.3,5.1-6.2.3-8.7,0Z"/>
    <text class="cls-3" transform="translate(420.5 134.9)"><tspan x="0" y="0">RN</tspan></text>
  </g>
  <g onclick="filterTableByState(&apos;CE&apos;, &apos;Ceará&apos;, event)">
    <path class="cls-5" d="M372.4,104.4c.4-1.4,3-3.6,1-5,12.1-1.3,17.6-.8,27.7,6.7,4,3.1,6.8,5.6,10.6,9.1,1.3,1.3,7.6,4.3,7.9,6.2,0-.3-5.4,3.7-6,5.2-1.1,2.7-2.7,6.1-4.3,8.3,0,0-6.9,4-3.5,4.2-4.4,3.8-1,8.1-.8,11.5.2,2.8-4.4,7.6-6.8,5.4-2.2-2-4-5.7-7.8-5.1-2,.3-5.5,2.2-7.6.5-2.5-2.1,3.7-5.2-.5-7.4-7-3.6-1.3-15.4-6.7-20.2-3.5-3.1,1.8-7.3.1-10.7-.7-1.5-2-7.9-3.3-8.7.7-2.1,2.4,1.6,0,0Z"/>
    <text class="cls-4" transform="translate(386.8 129)"><tspan x="0" y="0">CE</tspan></text>
  </g>
  <g onclick="filterTableByState(&apos;PI&apos;, &apos;Piauí&apos;, event)">
    <path class="cls-5" d="M320.8,185.5c2.5-5.1-7.5-20.8-7.5-20.8,0,0,47.4-65.9,54.3-66.8.3,0,6.2,1.8,6.5,2.2.4.9-.8,5.2-.7,6.6.3,2.6,2.9,6.6,2.3,8.7-1.1,4.7-1.9,6.1,1.4,9.9,2.8,3.2.3,10.2,2.5,14.3-1.8,4.2,4.8,3.7,3.9,7.6-.7,3.2-5.4,7.7-1.2,10.3.3,4.6-4.7,5-6.8,7.8-2.6,2.8-5.5,5-8,7.9-.5.7-8.8,4.1-10,4.1.3-.3-17.7-6.4-12,2.4,2.5,3.8-1.5,5.6-3.2,8.8-.6,2.2-5.8,1-7.8,3.2-6.4,7.2-7.2-10.8-13.8-6.1Z"/>
    <text class="cls-4" transform="translate(355.1 158.1)"><tspan x="0" y="0">PI</tspan></text>
  </g>
  <g onclick="filterTableByState(&apos;MA&apos;, &apos;Maranhão&apos;, event)">
    <path class="cls-5" d="M288.8,127.8c4.1-2.7,31.2-49,31.4-50.4,1.2.4,6.1,7.4,7.6,5,.5,0-.3,2.2-.5,2.4,0-.1,2.2-2.3,2.5-2.4.5-.2,1.9,1.9,3.5-.7,5.6,1.6,1.3,14.3,9.1,11.7-1.1.4,1.5.7.8,1.9,5.1-6.6,8.5,0,15.3,1.5,2,.5,6.2.6,8.2.2,3.8-.8-2.1,6.8-2.1,6.9-1.4,3-5,1.7-6.8,5.7-.7,1.5-3.5,4.3-3,6.1.5,1.8,2.1,2.9.3,4.6.6,2.8,3.1,7.1-.4,9.1-4.6,4.4,2.3,7.5,1.3,11.6-.9,3.7-6.2,5.7-9.1,2.8-4.8-.1-6.9,3.8-10.4,6.4-2.7,2-8.8,2.5-10.3,5.6-1.9,3.9-3.7,8.8-5.3,12.8-1.7,4.2,6.4,18.8-4.3,15.6-.9-.3-3.4-4.7-3.4-5.7,0-3.7-2.7-4.2-4.8-7.5.4-3,2.5-6.9,4.8-8.1,3.3-1.6,1.9-6.6-2.5-4.5-3.5,1.7-4.7-2.8-7-5.3.5.6-3.1-4.7-3.1-3.7.2-1.9,2.9-5.8,3.3-8.4.6-3.3.5-6.8-.5-10.1-.6-2.1-4.7-4.5-6.5-4.4-1.3.3-2.4,0-3.4-.9-2.3,0-2.3,2.3-4.4,2.1Z"/>
    <text class="cls-4" transform="translate(318.3 126.7)"><tspan x="0" y="0">MA</tspan></text>
  </g>
  <g onclick="filterTableByState(&apos;AM&apos;, &apos;Amapá&apos;, event)">
    <path class="cls-5" d="M225.2,39.1c3.3,1.2,4-1.3,6.6-1.7,3.6-.6,5.7,2.7,9,2.1,4.1-.8,7.1-8,7.3-11.6,4.5-3.5,5.5-11.3,9.4-14.7,6.1,4.3,6.1,15.8,7.6,22.5-.2,0,6.6,8,7.9,8.7,3.4,1.7,3.4,6.2,0,9.3-3.8,3.6-7.4,34.3-7.4,34.3h-46.5s.9-50.4,0-51.4c2.6,0,4.1,1.9,6,2.6Z"/>
    <text class="cls-4" transform="translate(245.9 52.6)"><tspan x="0" y="0">AP</tspan></text>
  </g>
  <g onclick="filterTableByState(&apos;PA&apos;, &apos;Pará&apos;, event)">
    <path class="cls-5" d="M173.4,50.6c2.3,2.6,5.6-4.5,7.9-3.8,3.2.9,1.5-1.1,5-1.8,1.9.8,3.1.3,3.5-1.6.5-1.3,1.5-1.7,2.7-1.4,1.8-1.7,13.6,3.6,14.7.4.6-1.8-4.3-5.7-.3-7,1.6-.5,6,.8,8.8,0,4-1.3,4.9,2.7,4.4,6.1.6,3.6,13.1,5.8,13,8,3.6-1.5,5.4,12.8,7.1,14.4.4,4.3,6.3,8.6,7.1,12.5.6,3.4,7.1,3.6,8.2,0,2.6-8.1,9.7-10,13.5-16.7,4.6-8,3.7,3.8,9,1.1,2.1.4,2.9,3.6,4.6,4.7,3.2,2,7.8,1,10.6,3-4.2,4.4,8.2,3.8,9.2,3.9,4.7.6,8.1,2.4,11.9,3.6-.2,0,4.8.5,5.2,1.2,2,3.8-4.9,19.2-6.4,21.5-1.1,1.7-2.9,5-3.7,6.8-.9,2-4.8,7.3-4.7,9.2-1.9,1-2.2,4.8-5,4.3-3.1,3-8.2,5-10.3,9,2.1.8,8.3,1,5.3,4.3-.8.9-1.1,5.5-1.6,6.8-.6,1.4-4.5,4.8-6.1,5.3-4.1,1.4-2.7,4.1-4.3,7.7-.9,2.1-.5,3.5,1.8,4.3,0,2.8-1,5.6-2.4,8-3,5.2-9,9.8-10.1,16.3-3.3,3.4-87.1-1.2-87.5-2.6-1.4-5,1.5-24-2.8-27.9-.2-2.1-29.9-6.3-30.7-8.1-.8-1.8,22.3-83.7,22.5-91.7ZM319.1,77.7c.2-.8.6,1.1,0,0Z"/>
    <circle class="cls-1" cx="239.2" cy="120.4" r="9.9"/>
    <text class="cls-2" transform="translate(231.3 124.4)"><tspan x="0" y="0">PA</tspan></text>
  </g>
  <g onclick="filterTableByState(&apos;RR&apos;, &apos;Roraima&apos;, event)">
    <path class="cls-5" d="M113.2,24.1c-1-2.8-7.9-5.9-7-9,0-.2,13.2,6.1,12.8,2.8.4,1.3,1.2,1.9,2.4,1.7,1.9-1.3,7.1,4.2,8.2,1.9.4-1-1.7-3.8.7-3.8,1,.4,1.5.2,1.5-.8.8-1.8,3.6.2,4.8,0,.8-1.1,10.6-3,9-5.1,1.4.4,4.6.8,4.6-1.5,4.5-2.1,1.1-4.4,2.6-6.4,2.2-2.8,9.8.8,7.3,5.7-2,3.9,7.1,4,5.7,9.4-.5,1.7-2.5,2.7-3.4,4-1.2,1.5-1.8,9.2-1.4,11.5,1,4.9,3.2,8.7,6.1,12.2,1.7,2,5.6,2.3,5.7,4.4.2,2.9,1.2,6.2.3,9.1-1.5,5.4-36.6,30.5-36.6,30.5,0,0-12.5-52.7-20.3-54.1-1.2-.1-5-10.9-3.3-12.4Z"/>
    <text class="cls-4" transform="translate(136.3 42.4)"><tspan x="0" y="0">RR</tspan></text>
  </g>
  <g onclick="filterTableByState(&apos;AM&apos;, &apos;Amazonas&apos;, event)">
    <path class="cls-5" d="M10.1,136.4c1.1-5,4.3-10.4,8.2-13.1,4.4-3,7.7-5.7,13.1-6.1,2.2-.1,10.2-5.8,12-3,3.7,5.8,5-3.7,5.6-7,1.7-9.7,3.7-19.3,4.9-29.1-.3-1.4-2-6.2-2.8-7.2-1.5-1.6-4.3-2.1-4.8-4.5-.3-1.5-.6-7.3,1.1-8.1,3.5-1.8,6.5,0,9.7-.9-2.6-4.1.3-4.3-5.5-5.1-3.4-.5-4-2.5-2.7-6.4,1.1-3.3,15.9-1,19.1-1.4-1.5.2-1.1-2.5,0-2.6,1.3-.2,1.6,2.7,3.2,1,1.3-1.4,3.2-2.9,4.6-3.8,2.4-1.5,4.5,8.2,4.5,9.8,0,.8-.1,2.4,1.2,2.2,3-.5,4.2,2.8,7.3,4.2,3.8,1.7,3.9-1.4,7-2.1,4.3-1,.7,3.4,2.4,3.8,1.6.4,3.8-5,4.8-5.6.9-.5,3.7-.8,4.8-1.6,3-2.2,1.9-1.7,3.5-1.2,3.5,1,2.2-8.4,6.5-7.1,1.8-.5,3.6-2.3,5.5-2.4,1,0,6.1,2.3,6.5,3.1.6,1.5.3,2.8-.8,4,1.6,1.4,2.7,3.1,3.4,5.2.9,2.9-1.3,6.8.6,9.3-.2,6.7,4.8,7.9-.4,12.6.2-.2,6.7,7.1,7.1,8,1-.7,4.1.8,4.4,1.5-1.7-3.6.5-17.1,6.6-10.9,7.2,7.3,5.5-3.6,9.1-8.6,2.8-3.9,14.6-3.1,14.1,3.2-1.1,3.3,6.3,14.3,9.7,11.4,2.3,5.7,6.9,4.3,10.4,8.1,5.1,5.5,4.4,3.4,11.3,2.8-2.3,3.6-3.4,4.8-5.3,8.9-3.1,6.9-6.1,13.8-9.2,20.7-2.4,5.5-14.8,23.5-11.1,28.4,4.8,6.4,9.3,30.2,11.3,29.9-6.2-.3-48.1-10.6-51.7-8.1-1.5,1-53.6,10.5-55.9,10.8-6.4.9-18.1-7.3-23.7-10.1-8.6-4.4-16.6-9-26.1-11.1-10.3-2.3-20.6-4.8-29.9-10,.5-2.8,8.8-3.8,6.4-12.1Z"/>
    <text class="cls-4" transform="translate(98.1 119.1)"><tspan x="0" y="0">AM</tspan></text>
  </g>
  <g onclick="filterTableByState(&apos;AC&apos;, &apos;Acre&apos;, event)">
    <path class="cls-5" d="M3.7,148.5c12.6,7.5,27.5,8.4,41.1,13.2,12.8,8.1,27.3,12.8,40.6,19.9-2.8,1.2-7.6,4.4-10,6.4-2.9,2.4-1.3,2-4.6,2-2.9,0-4,4.6-7.2,5.3-3,.6-7.2-2-11-1.7-1.9.1-12,0-12.6.6.3-3.6-.4-7.3-.2-10.9,0-1.4,2-6.5,1.2-7.5-6.8,3.1-8.3,7.2-16.7,7-2.1,0-2.6-2.5-3.1-4-1.2-3.6-7.2-3.4-10.6-3.8,6.3-3.4-3.1-11.9-5.2-15.7-.5-.9-3.6-4.7-3.6-6-.1-3.2,4.8-1.4,1.9-4.8Z"/>
    <text class="cls-4" transform="translate(47.7 184.9)"><tspan x="0" y="0">AC</tspan></text>
  </g>
  <g onclick="filterTableByState(&apos;RO&apos;, &apos;Rondônia&apos;, event)">
    <path class="cls-5" d="M83.3,180.2c.9-1.6,5.3-4.7,6.3-4.7,1.4,0,2.7.1,4,.6,3,1.4,2-1.1,5.3-.1-1.3-2.3,3.8-2.9,2.9-.3,3.1.2,2.7-4.7,6.7-5.1,4.4-.5,5.1-.6,7.1-4.5.1-.2,2.6-5.5,2.8-5,2.2-6.5,14.6-.9,15.6,3.4.4,1.6,1.8,3.1,3.6,4.4,1.2.9,6.3-4,6.1,1.3-.8,1.3,26.7,7.7,30,19.3,3.8,13.3-16.4,32.2-18.2,34-4.5,1.2-2,1.7-6.6.1-2.6-.9-6.4,1-9.1.3-2.4-.6-3-4-5.9-4.7-3.1-.8-5.4-1.8-7.7-3.9-4-3.9-9-2.6-14.5-3.8-1.8,0-6.1-6.8-7.9-5.3-1.8-.4-5.4-9.1-3.4-11.2.1-1.7-.3-3.2-1.2-4.6-1-2.6,1-5,.9-7.8-.4-6.1-1-2-3.4-1.9-2.6.1-11,1.1-13.6-.3Z"/>
    <text class="cls-4" transform="translate(118.1 195.3)"><tspan x="0" y="0">RO</tspan></text>
  </g>
  <g onclick="filterTableByState(&apos;MT&apos;, &apos;Mato Grosso&apos;, event)">
    <path class="cls-5" d="M142.2,174c4-.3-1.9-6.5,5-5.7,7.9.8,16.3.3,24.3.2,1.6,0,8.9,1.3,7.4-1.8-1.2-2.5,1.8-6.4.4-9.7,2-.9,1.3-3.8,2.6-5.1,1.2-1.1,4.2,7.2,4.4,7.8,1.1,2.5.4,5.5,1.9,7.7,1.4,2,4.6,2.1,5.9,4.3,3.1,5.1,10.8,4.1,17.1,4.7,20.2,1.7,40.4,2.7,60.5,4.8-3.5,7.8-4,14.9-5.1,22.6-.4,3,1.9,7.2,0,10.1,1.9,1.3,1.3,2.8,1.4,4.4,1.2,25.1-20.4,60.2-33.5,58.6-10.9-1.4-45.3,0-46.9-3.4-1.2-3.9-6.1-2.7-8.4-6.6-2.3-4.1.7-6.3.7-10.2-7,.6-14.1-.4-21.1-.3.8-5-3.7-9.3-2.9-13.8.5-3,2.7-2.9.9-6.8-1.2-2.6-.3-4.2-.7-6.4-.3-1.4-1-1.9-2.1-2.4-2.9-1.5,1.2-2.5,2.1-3.6,1.7-2.5,3.3-11.4,6.5-11.6,1.2-2-1.8-3.6-1.5-5.6-3.9-3.6.5-4.6.4-8-.2-3.6-9.7-3.9-12.3-3.8-1.8.1-4.1.6-5.9,0,.5-3.5-.5-6.1-.5-9.2,0-2.3,1.3-5.2.8-7.4-.1-.6-1.8-2.5-1.5-3.3Z"/>
    <text class="cls-4" transform="translate(200 218.4)"><tspan x="0" y="0">MT</tspan></text>
  </g>
  <g onclick="filterTableByState(&apos;MS&apos;, &apos;Mato Grosso do Sul&apos;, event)">
    <path class="cls-5" d="M183.2,294.5c2.1-4.5,3.2-9.4,5.3-13.6,1.7-3.3-4.1-7.6-2.4-9.8,0,0,2.7,3.6,3.9,3.7,3.2-1.5,4.8-2.3,7-5.2,2.6-3.6,10.8-3,14.1-.3,1.3,1,3.1,2.1,4.7,2.6,3.2.9,5.9-3,8.6-.9,3.7,3,4.6-1.9,7.9-3.5,1.9-1-1.8,8.5-2.2,7.8,2.5,1,4.3.9,6.8,1,3.5,0,1.8,1.2,2.4,3.3.5,1.6,28.9-6,29.4.6.3,3.8-1,61.8-1,61.8,0,0-39.5,5.5-41.6,5.3-3.9-.5-3.6-3.2-8.1-.9-2,.3-6,1.2-5.2-2.4-2-4.4-.1-14.6-4.8-17.1-1.2-.7-7.1-2.4-7.5-1.9-1.7,1.8-3.7,1.6-6.1,1.1-2.9,0-5.6-1.6-8.2-1.2-4.2.7-.6-3-1.6-3.5.9-2.8,1.4-9.9.5-11.9-.2-.3-3.5-7.2-2.5-8.1,4-3.6,0-1.9.9-6.8Z"/>
    <text class="cls-4" transform="translate(213.3 306.7)"><tspan x="0" y="0">MS</tspan></text>
  </g>
  <g onclick="filterTableByState(&apos;GO&apos;, &apos;Goiás&apos;, event)">
    <path class="cls-5" d="M237.8,270.5c.6-2.9,1.8-7.4,4.7-8.8,1-1.6,1.8-5.1,2.3-5.6,2.4-2.2,3.9-3.8,6.6-4.7,3.7-1.2,3.3-5.3,4.8-8.2,1.5-2.8,4.7-1.1,5.9-3.4,1.5-2.8.7-6.2,2.2-8.9,2.9-5.5,1.9-17.4,8.7-20.6-4.9,7.6,3.7,5,7.2,9.4,2.3,1.7,2.2-1.8,2.7-3.1,1.6-3.5,2.9,2.2,4.5-1.5.4.4,4.1,5.8,3.4,5.6,0-.9.3-1.4,1-1.4.1.5.3,1,.6,1.5-.6-.3,9.7,0,8.8,1.5.4-.7-.6-3.1.2-3.4,1-.4,4,1.4,6.4.4,1-.4,7.9-2.8,7.7-3.7.8.9,1.3,2.7,2.9,1.3-2.6,2.3-2.6,4.5,1.3,3.8-1.9,1.4-2.8,4.3-2.4,6.5.4,1.6,3.8,6,3.5,6.8-1.8.3.6,5.4-2.3,6.1-3.2.7-4-5.5-4.3.7-.2,1.5-1.1,1.7-2.8.6-3.3.3-.5,2.2-1.1,3.9-1,2.9,2.8,6.4-2.4,6.8-3.6.2-2.7,1.3-2.7-2.7,0-4.6-12.1-3.6-10.2.5-4.9,6.4,12-.3,9.7,6.4-1.3,3.8,15.8,28.2,10.4,25.4-1.9-1-50.8,10.3-50,12.1-5-2.1-11.8-7.9-17.4-8.2-.4-2.2-3.6-1.3-5.1-1.5-3.7-.6,1-3.2.2-4.1-1.9-1.9-4.4,1.8-3.6-3,.4-2.5-2.1-4.1-1.4-6.6Z"/>
    <text class="cls-4" transform="translate(266.9 254.2)"><tspan x="0" y="0">GO</tspan></text>
  </g>
  <g onclick="filterTableByState(&apos;PR&apos;, &apos;Paraná&apos;, event)">
    <path class="cls-5" d="M222.2,363.7c1.8-2.1,1.9-4.9,2.4-7.5.3-1.5.5-7.9,1.4-8.7,2.3-.7,2.3-3.3,2.7-5.2.6-2.7,2.8-3,4-5.6,4.4-9.9,38.9-9.5,46.5-9.2,4.7.2,15.8,34.6,17.9,33.8-1.7,2.2-5.8,8.9-8.4,9-4.1,0-14.2,14.7-14.2,14.7,0,0-37.3-12-40.3-11.3-3.9-1.4-2.7-6.5-6.1-8.2-1.5-.8-5.7,2.4-5.9-1.7Z"/>
    <text class="cls-4" transform="translate(248.4 356.1)"><tspan x="0" y="0">PR</tspan></text>
  </g>
  <g onclick="filterTableByState(&apos;SC&apos;, &apos;Santa Catarina&apos;, event)">
    <path class="cls-5" d="M231,384c1.7-3.3-.3-10.5,4.6-10.6,6.6-.1,13.6,3.6,20.4,3.9,1.3,0,5.2,2.2,4.4-1.1-1.1-4.2,3.9-1.9,5.7-3.2,2.3-1.7,8.2-4.1,11.3-1.4,1.4,1.8,20-5.4,13.3,3.9-1.4,1.4.7,10.8.5,10.7-3.4,4.4,1.7,11.7-5.1,15.3-2.9,1.5-7.3,7.8-9.6,10-.3.3-42.8-28.7-45.3-27.6Z"/>
    <text class="cls-4" transform="translate(266.9 387.8)"><tspan x="0" y="0">SC</tspan></text>
  </g>
  <g onclick="filterTableByState(&apos;RS&apos;, &apos;Rio Grande do Sul&apos;, event)">
    <path class="cls-5" d="M191.2,416.9c.5-2.7,7.4-8.4,9.5-10.4.4-.4,8.6-10.1,9.2-8.3-1.3-3.9,2.8-1.6,3.9-4.8.3-.5,7-4.8,7.1-4.8,1.4-.2,6.7-3.7,7.4-3.3,1.2-2,8.9-1.5,8.7-.8,1.2-.4,2.3-.9,3.3-1.5.2-.8,22.5,7.5,24.3,11.5,2.5,5.3,12.2,2.8,13.1,5.6.1.3-5.8,9.3-3.9,9.2-1,0,3.2-2.9,3.8.4-2.8,3.6-4.6,7.8-6.6,11.9-3.7,7.6-8.9,12.8-15.9,17.4-7.4,4.9-7.3,11.9-13.3,17.7-8.1,7.9-10.2-.6-4.1-5.8,3.8-3.2-22.5-19.7-25.6-22.7-1.9-1.9-2.4.3-4.2,1.1-2.5,1.2-1.9-2.8-3.6-4.3-2.3-2-4.8-5.5-7.7-6.7-3.5-1.4-5.6,5.1-9.1.8,1.4-.4,2.6-1.3,3.5-2.4Z"/>
    <text class="cls-4" transform="translate(231 414.5)"><tspan x="0" y="0">RS</tspan></text>
  </g>
  <g onclick="filterTableByState(&apos;São Paulo&apos;, &apos;SP&apos;, event)">
    <path class="cls-5" d="M239.3,330.6c3.3-4.4,9.6-5,11.5-10.8,1.4-3.9,3.9-8.8,6.1-13,1.6-3,7.7-7.1,10.5-8.6.4-.2,33-6.1,42.2-1.7,20.3,9.7,26,33.9,27.9,33.3,4.4-1.4,5.3,3.8,2.1,4.5-1.8.4-6.5,1.5-6.5,3.4,0,3.4.5,1.6-2.9,3.6-2.2-1.4-3.3,4.1-4.8,3.4-4.3-2.2-7,3-9.3,1.9-4.3-1.9-17,13.1-19.6,15.3.2-.2-1.1-1.5-1.6-2.7-.5-1.4-2.7.4-4,0-1-.2,1.8-4.1-2.3-4.5-1.4-.2-3.8.3-4.9,0-2.9-.5.1-2.4-.4-3.9-1.1-3-3-4.9-3.8-7.8-.5-1.9.2-7.5-3.6-7.4-.8-3-6.6-1.5-9.1-1.9-.2.2-8.8-2.7-10.1-2.7-1.6,0-6.8-3.4-7.1-.3-1.7-.6-9.8.2-10.4-.4Z"/>
    <text class="cls-4" transform="translate(280.7 327.3)"><tspan x="0" y="0">SP</tspan></text>
  </g>
  <g onclick="filterTableByState(&apos;MG&apos;, &apos;Minas Gerais&apos;, event)">
    <path class="cls-5" d="M262.9,297.3c-1.7-5.1,15.5-19.9,18.8-13.4,5.5-7.4,15.9,1.6,19.8-3.9,1-1.4,3-1.5,3.7-3,.3-.7-.5-2.8,0-3.9,1.4-3.4-4.9-2.4-.1-6.6,4.5-4.1-1.9-4.7-1.2-8.2,1-4.6,1.8-4.7,5.6-6,1.9-.7.9-8.3,0-8.5-.1-2.7,2-2.5,3.8-1.6,2.2-.1-.3-3.7,1-4.2-.4.2,5.6,2,5.7,2.1,1,.4-.5,3.5-.9,3.9,8.2-2.4,14.5-11.8,23.3-11.2,5,.3-.3,4.3,5.4,5.5.7,1.2,3.3-1.1,4.1-1.2,2.9-.5,5.5,3.3,8.1,3.9,2.3,3.6,7.5.5,10.3,3,1.8,1.6,2.2,3.4,3.4,5.3,1.3,2.1,3.9-.5,5.7-.1,3.3.7,6.3,2,9.3,3.7,2.2,1.2.8,3.2-.5,4.6-.8.8-3.3,6.2-2.6,5.6-2.1,1.8-2.6-1.7-3.4,2.8-.6,3.7.2,4.7,3.1,7,4.9,3.2-6.8,3.1-6.7,3.5.2.6-2.8,42-3.8,42.2-6.7,1.6-14.5,5.3-21.7,7-12.7,3-24.3,3.8-29.5,4.7,0,1.5-5.4,6.9-8.5,1.3,0,0-3-7.3-2.8-7.2.1,0,2.1-5.5,2.2-6.1.8-3.5-5-.8-5.7-2.2-.9-1.8-2.4-4.6-2.2-6.6,1.7-1.2,1.7-2.4,0-3.6-1-1.1-1.2-2.3-.5-3.7-2.3-1.4-3.1-2.7-5.7-2.5-1.5.1-4.1,3.7-5.5.6.9,2.1-4.2.8-5.1,1.6-2.4-1.2-1.8,2-2.4,3.1-.1.2-1-2.9-1.1-3-1.1-1.2-2.8,4.2-3.5,0,.8-4.1-4.7-2.7-7.7-2.9-4.7-.4-5.5-1.6-9.9.6-2.1,1.1-2.7-.2-2.2-2.2Z"/>
    <text class="cls-4" transform="translate(328.4 286.5)"><tspan x="0" y="0">MG</tspan></text>
  </g>
  <g onclick="filterTableByState(&apos;RJ&apos;, &apos;Rio de Janeiro&apos;, event)">
    <path class="cls-5" d="M332.9,337.4c-1.3-2.8,8.4-4.8,7.9-6.7-3.2-1.9-4.6,1.1-6.6-3,4.3-.7,9.5-4.5,13.8-3.6.5-.2,4.9-1.8,5,.2,2.5-1.6,5.5-2.4,8.1-3.8,2.2-1.2.9-8.2,3.7-9.6,6.1-3.1,1.4,1.8,7.1,3,5.9,1.2,5.4,1.5,5.6,7.1.2,5.6-8.8,4.4-11.1,8.8-1,2,1.7,5.4-3.4,4.9-4.2-.4-10.6,2.4-9.3-3.2-1,0-1.9.3-2.5,1.1,0,0,.1,2.8-.7,2.7-.8,0-7.6,1.1-7.4.5,1.4-.4,2.7-.7,4.1-.8-1.7-.7-3-1.8-4.9-.1.5.2-4.2,0-3.4-.1-.5,1.7-3.8.7-3.9,3,1.6.2-1.2,4.7-2.2-.3Z"/>
    <text class="cls-4" transform="translate(347.5 334.7)"><tspan x="0" y="0">RJ</tspan></text>
  </g>
  <g onclick="filterTableByState(&apos;ES&apos;, &apos;Espírito Santo&apos;, event)">
    <path class="cls-5" d="M367.1,308.8c1-2-.3-5.5,1.8-6.3,3.7-1.5,3.9-.5,5.9-4.5.8-1.6,4-5.8,2.8-7.8-.4-.8-3.2-3.6-3.3-4,1-.2,2.1-.2,3.1,0,1.4-.7-6.5-10.5,2.1-8.1-1.2-.7-1.5-1.4-.9-2.1,4.4-.1,13.9,0,12.8,6.7-.6,3.8.9,8.1-.6,11.8-.2.6-5.9,9-5.8,9,1,3.3-5.2,5.8-6.1,8.2-1.3,3.6-2.1,3-5.6,2.6-1.6-.3-3.2-.8-4.7-1.5,0-1.5.6-3.7-1.7-3.9Z"/>
    <text class="cls-4" transform="translate(380.3 300.5)"><tspan x="0" y="0">ES</tspan></text>
  </g>
  <g onclick="filterTableByState(&apos;DF&apos;, &apos;Distrito Federal&apos;, event)">
    <path class="cls-5" d="M292.5,246.2s12.9-2.9,14.2,0c1.2,2.9.7,10.7-1.4,11.5-2.1.8-14.3-1.8-14-3.3.3-1.5,1.3-8.2,1.3-8.2Z"/>
    <text class="cls-4" transform="translate(292.4 254.2)"><tspan x="0" y="0">DF</tspan></text>
  </g>
  <g onclick="filterTableByState(&apos;PB&apos;, &apos;Paraíba&apos;, event)">
    <path class="cls-5" d="M401.6,141.1c2.1-3.1,16.8-6.8,19.1-4.6,0,1.9,7.3,1.7,10.1,2.7-.5,3,12.7,1.5,14.4,2.3,1.4.6,3.8,12,1.4,12.2-.9-1.1-2.1-1.7-3.6-1.8-3,0-2.5,1.9-4.4,3.1-2.6,1.8-6.6,1.9-9.6,2.1-.2,1.2-3.9,4.4-5.3,4.9-3.1,1.1-2.7-2.7-5.1-3.6.7-1.1,4.1-5.2,3.7-6.2-1.4-3.8-12.1,5.5-15,3.5-1.4-1-6.2,1.5-3.5-2.6,1.5-2.3-3.6-10.2-2.5-12Z"/>
    <text class="cls-4" transform="translate(425.2 152)"><tspan x="0" y="0">PB</tspan></text>
  </g>
</svg>